<svg width="271" height="196" viewBox="0 0 250 250"><path class="path" d="M257.724 47.922c-17.856 5.595-33.534 13.743-50.534 19.554 10.12-17.734 17.935-37.492 26.762-55.837 0-.027.134-1.152.645-.634 2.524 2.598 4.903 5.846 7.238 9.02 5.604 7.596 12.153 14.162 18.957 21.11.3.3 1.79 1.954 2.825 3.24-.98-1.245.833.872.7 1.187-.223.615-5.493 2.004-6.594 2.358v.002zm3.446 5.178c-4.014 5.195-8.917 9.536-12.73 14.717-.78 1.017-1.635 2.15-2.513 3.06-.9.904-2.012 1.665-2.924 2.59-.978 1.012-1.68 2.284-2.624 3.276-8.474 8.648-17.935 17.084-25.907 26.365-3.102 3.58-6.338 7.09-9.462 10.762-7.58 8.903-15.453 18.063-24.07 26.476-3.358 3.308-6.56 6.975-9.44 10.782-2.88 3.81-6.36 7.128-9.284 10.75-6.014 7.48-12.863 14.116-18.934 21.393.212-2.094 1.834-3.522 2.735-5.288 1.823-3.537 4.08-7.595 6.115-11.25.923-1.66 2.046-3.267 2.946-4.953.923-1.677 2.08-3.17 3.002-4.778 1.023-1.806 1.59-3.95 2.48-5.825.322-.69 1.046-1.303 1.368-1.995.245-.557.078-1.186.3-1.698.722-1.515 1.856-2.98 2.657-4.558 2.29-4.48 4.715-9.618 7.383-13.964 3.702-5.99 6.57-12.434 9.84-18.67 1.567-3.038 3.47-5.99 5.292-9.114 1.734-2.933 3.168-6.138 4.925-9.245 1.6-2.817 3.258-5.77 5.126-9.1 1.37-2.454 3.425-8.004 5.338-8.93.633-.297 1.5-.04 2.145-.297.935-.35 1.457-1.285 2.302-1.766 1.034-.584 2.424-1.097 3.624-1.596 2.256-.93 4.936-1.465 7.293-2.48 6.227-2.646 12.787-5.68 19.08-8.458 3.446-1.502 7.16-2.43 10.606-3.82 2.556-1.025 4.913-2.076 7.427-2.845 2.5-.78 4.925-1.522 7.315-2.476 1.546-.61-1.31 2.82-1.412 2.935zm-120.2 125.2c-1.29 2.53-1.946 5.937-4.27 7.514-.067-17.922-.88-35.298-.29-52.452.167-4.54.323-9.163.3-13.716-.055-12.297-.055-24.085-.922-35.78 7.738-1.78 16.367-3.046 25.294-4.4 3.56-.538 7.172-.61 10.72-1.468 7.692-1.897 18.644-3.142 26.338-4.742.378.66-.366 1.457-.645 1.924-2.79 4.538-5.392 9.797-8.205 14.606-1.6 2.733-2.89 5.695-4.48 8.485-1.58 2.73-3.347 5.37-4.904 8.136-3.058 5.51-5.76 11.496-8.74 17.254-2.167 4.193-4.547 8.26-6.826 12.6-1.167 2.22-2.457 4.29-3.624 6.693-1.924 3.87-4.09 8.23-6.35 12.174-.922 1.61-1.545 3.358-2.434 4.895-.444.782-1.267 1.304-1.723 2.06-1.09 1.805-1.803 3.99-3.014 5.877-1.034 1.6-1.9 3.046-2.958 4.965-.566 1.05-.945 2.292-1.556 3.312-.434.746-1.323 1.28-1.712 2.063zm-4.06-124.657c-.01-1.956-.6-5.843-.177-6.57.345-.517.567.28 1.257-.162.266-.14.945-1.43 1.38-2.013 3.79-5.177 8.38-10.88 12.517-16.296 3.66-4.8 7.55-10.03 11.23-15.037.912-1.236 1.535-2.678 2.39-3.8.512-.685 1.535-.78 1.57-1.854.154-.054.188.045.198.162-.1 4.79.834 9.905.556 14.516-.1 1.54-.276 3.775-.755 5.203-.733 2.178-2.8 3.732-4.102 5.836-1.18 1.855-2.124 3.668-3.47 5.398-3.69 4.86-7.36 10.346-10.562 15.873-3.245 5.555-6.492 10.98-9.75 16.643-1.01 1.796-1.8 3.873-3.257 5.37-.034-7.897 1.056-15.002.978-23.267zm33.78-23.434c8.882 13.23 17.833 26.355 26.76 39.51-5.858 1.023-12.94 2.026-19.434 3.033-5.203.835-10.34 2.453-15.433 3.024-7.505.903-16.02 2.28-22.57 2.94.178-1.82 1.457-3.264 2.246-4.853 2.3-4.797 5.448-9.538 8.25-14.27 3.157-5.35 6.837-10.755 10.573-15.855.523-.744.8-1.684 1.322-2.37.98-1.31 2.335-2.37 3.292-3.754.956-1.348 1.534-2.97 2.512-4.34.755-1.066 2.123-1.672 2.48-3.067zm.72-25.248c17.246-.544 36.592 2.072 54.893 2.817-8.64 3.644-20.48 6.187-31.53 9.25-2.492.69-4.905 1.144-7.418 1.76-3.09.755-7.126 2.13-11.763 3.277-1.1.27-3.202.944-3.558.66-1.067-.907-.534-5.654-.578-6.854-.19-4.718-.712-8.252-.044-10.912v.002zm58.03 5.667c.054-.015.376-.393.677-.29.81.275-1.1 2.832-.912 2.512-1.5 3.03-2.246 4.963-3.747 8.71-2.624 6.625-5.181 11.007-7.86 16.954-1.67 3.7-3.37 7.46-5.182 11.267-1.9 3.995-4.102 7.487-6.28 11.438-.935 1.727-1.28 2.46-2.492 4.347-.59.953-.79 2.076-1.924 1.91-.61-.078-3.235-3.583-3.69-4.216-7.628-10.62-13.9-19.356-20.993-30.65-.756-1.187-3.302-4.378-2.935-5.438.167-.427 4.66-2.373 5.315-2.558.633-.175 1.478-.14 2.135-.287 7.16-1.564 13.397-3.91 22.503-6.018 2.48-.563 5.17-1.403 7.727-2.154 4.58-1.366 8.695-2.507 13.298-4.03 1.48-.486 3.002-1.35 4.358-1.497zM133.54 54.26c-.055 7.208-.655 15.256-1.078 22.596-4.936-5.41-8.928-12.8-13.33-20.058-2.625-4.29-5.416-8.674-7.672-13.343-1.702-3.453-3.78-6.288-5.582-9.982-.478-.98-1.346-2.166-1.69-3.042-.123-.327-.367-1.254-.4-1.595-.067-.688.344-1.376.255-2.036-.067-.703-.633-1.407-.823-2.077-.588-2.108-.055-4.422-.044-6.92.01-2.482-.245-5.84-.544-7.934-.056-.418-.234-.647-.356-1.25.2-.045.333.014.388.144 8.073 11.415 17.212 22.889 26.296 33.387 1.256 1.466 1.9 2.28 3.09 3.952.523.723 1.346 1.403 1.535 1.96.69 1.883-.01 4.26-.044 6.197zm-.422 129.307c-7.794-13.402-14.076-27.208-21.248-40.443-2.168-4.004-5.136-7.982-7.338-12.3-2.112-4.168-4.725-8.468-7.182-12.32-.79-1.28-2.002-2.22-2.835-3.433-2.212-3.226-4.103-6.853-6.148-10.282-2.047-3.424-4.182-6.837-6.162-10.265-4.046-7.024-7.983-14.25-12.52-20.69.024-.227.257-.51.346-.23 3.413.35 6.816.916 10.23 1.5 3.368.602 6.76 1.523 10.117 2.063 3.68.607 7.45.494 11.097 1.034 9.64 1.438 20.302 3.806 30.942 5.034 1.78 34.817-.356 66.07.7 100.333zm-6.938-1.402c-20.614-19.6-39.37-42.304-58.427-64.33-4.903-5.637-10.284-10.912-15.243-16.48-9.873-11.23-19.368-22.868-29.92-33.447-5.425-5.43-10.15-11.608-15.143-17.236.132-.035.165.04.2.163 4.457 1.374 8.65 3.483 12.952 5.33 7.482 3.2 15.187 5.977 22.915 8.858 3.024 1.136 6.615 2.628 9.817 3.766 2.124.74 4.46 1.108 6.46 2.02.4.15 1.3.54 1.757.85.434.284.668 1.11 1.124 1.326.6.256 1.745-.175 2.38.19.7.43 1.81 3.096 2.846 4.727 1.1 1.77 2.223 3.218 2.98 4.51 2.08 3.55 3.535 7.158 5.214 10.034 7.56 12.826 15.354 24.817 23.004 37.297.956 1.57 1.678 3.33 2.68 4.925.977 1.55 1.967 3.137 2.846 4.706 1.78 3.18 3.936 6.138 5.615 9.253.877 1.577 1.577 3.45 2.556 5.11 1.4 2.403 2.112 3.927 3.1 6.677.713 1.934 2.16 3.78 3.17 5.77 2.858 5.714 6.115 11.682 8.94 17.362-.445.274-1.157-.752-1.824-1.385zM9.116 41.527c5.537-7.632 12.098-14.257 18.08-20.917 1.89-2.094 3.88-3.86 5.925-5.923.79-.796 1.458-1.752 2.192-2.486 2.312 4.55 4.992 10.81 7.505 15.948 3.446 7.01 7.17 15.172 10.718 22.192 1.134 2.287 1.612 4.89 2.78 7.106.355.646 1.044 1.01 1.3 1.443 1.11 1.818 2.813 6.873 2.768 6.92-.6.844-2.335-.675-3.024-.868-3.07-.81-6.216-1.47-9.285-2.535-2.857-.984-5.58-2.382-8.516-3.577-2.892-1.17-6.038-1.802-8.974-2.968-5.903-2.314-10.462-4.336-16.62-6.82-1.202-.486-2.28-1.067-4.06-1.632-.623-.18-4.047-.917-4.203-1.402-.144-.5 2.313-2.998 3.413-4.48zM39.27 10.372c2.112.19 4.558 1.614 6.526 2.382 7.572 2.998 15.488 5.736 23.538 8.086 6.815 1.963 14.087 3.95 21.058 6.008.544.163 3.624.962 3.87 1.654.377.985-1.535 3.195-2.325 4.338-2.846 4.05-6.593 8.025-9.117 11.82-2.724 4.125-5.536 7.96-8.316 12.287-2.29 3.455-4.237 7.11-7.383 10.124.09-1.346-1.344-1.463-1.945-2.276-.39-.51-.422-1.384-.844-2.086-.69-1.16-1.222-1.69-1.878-3.2-1.657-3.726-4.248-7.51-5.727-11.07-.31-.76-.31-1.545-.678-2.282-.255-.46-.778-.688-1.056-1.11-1.067-1.605-1.556-3.856-2.456-5.852-1.045-2.297-2.39-4.548-3.514-6.99-3.035-6.61-7.894-14.389-10.218-21.216 0 0 .112-.643.468-.616zm9.528-.948c0 .005.023.005.033.014 15.078-2.032 34.524-3.416 49.612-4.84.2 4.8.322 9.477.545 14.512.066 1.555-.078 4.745-.234 4.966-.067.067-1.59-.5-2.435-.58-.8-.08-.79.284-1.445.197-1.88-.238-4.08-1.375-6.294-2.06-2.124-.636-4.37-1.008-6.427-1.67C71.546 16.683 58.46 13.55 48.83 9.438c-.132.014-.276.04-.41.044.145-.004.278-.03.378-.058zm55.07 29.258c.91 1.69 2.034 3.267 2.89 5.056 5.804 11.937 13.61 23.09 20.347 34.03-2.302.27-4.726-.283-7.016-.697-8.34-1.418-16.845-3.13-25.507-3.94-7.77-.723-16.01-2.763-23.681-3.666.61-1.133 1.545-2.212 2.48-3.255 2.11-2.347 3.923-6.158 6.025-9.214.667-.993 1.3-1.86 1.99-2.832 1.468-2.126 2.857-4.328 4.37-6.62 1.09-1.645 2.546-3.182 3.88-4.898 1-1.294 1.59-2.75 2.557-3.834.356-.35.845-.522 1.168-.862 1.823-2.064 3.19-4.756 6.27-6.176 1.08-.494 3.692 5.892 4.226 6.908zm163.64 3.505c-4.548-4.426-8.74-9.114-13.13-13.307-4.137-3.915-7.583-9.146-11.308-13.186-2.47-2.737-4.225-5.003-6.55-7.874-.6-.716-1.934-2.742-2.757-2.903-.377-.05-1.112.39-1.6.405-1.68.04-4.126-.47-5.538-.5-4.47-.144-8.772-.508-13.252-.917-13.943-1.303-29.064-2.09-43.05-2.818-.89-.053-2.058-.566-2.748-.175-.867.463-.41 1.84-.877 2.858-.645 1.322-3.09 2.972-4.28 4.602-7.595 10.323-15.2 19.68-22.882 29.77-.757.975-3.58 4.75-4.27 4.787-.522-.01-1.056-1.264-1.99-2.477-.634-.828-1.568-1.552-2.09-2.073-1.88-1.775-3.036-3.366-4.326-4.89-7.96-9.325-15.566-18.47-22.37-28.637-.233-.354-.422-1.163-.745-1.537-.434-.485-1.112-.39-1.412-.89.145.23-.044-.74-.122-.903C101.4-.58 99.644.48 96.83.805c-10.785 1.352-21.303 1.123-33.69 2.83-3.858.54-7.393.864-11.318 1.188-3.213.26-6.526.794-9.206.718-.434-.003-.9-.367-1.323-.354-.712.02-1.512.43-2.135.486-1.034.044-1.51-.32-2.357-.04-.765.232-1.466.273-1.688 1.132-.112.5-.09.018-.3.404-1.857 3.443-5.75 6.198-8.573 9.213-2.525 2.653-5.182 5.237-7.65 7.96-3.792 4.186-7.372 8.35-10.874 12.436-1.212 1.443-2.668 2.62-3.825 3.995-.7.842-1.067 1.988-1.79 2.805-.867.958-1.923 1.394-2.056 2.298-.456 3.006 2.757 4.395 4.08 5.815 2.658 2.88 4.937 6.134 7.45 9.16 7.55 9.05 16.244 17.406 23.682 26.282 5.014 5.995 10.55 11.644 15.566 17.752 4.96 6.008 10.506 11.68 15.9 17.474 10.795 11.582 20.446 24.17 31.153 35.65 2.668 2.834 5.16 5.868 7.772 8.75 6.548 7.216 14.008 13.994 20.557 20.88 1.335 1.4 2.947 2.727 4.214 4.156.267.284.278.904.534 1.19.322.365.923.42 1.2.75.635.716.546 1.458 1.146 1.85.8.483 2.657.537 3.69.214.535-.147 2.88-1.666 2.88-1.666.38-.437.145-1.322.468-1.89 1.09-1.905 3.57-3.567 5.07-5.428.378-.48.534-1.388 1.01-1.964.246-.287.713-.364 1.013-.666.22-.277.344-.754.588-1.023 5.782-6.91 11.797-12.784 17.334-19.705 2.012-2.507 4.08-5.155 6.26-7.424 4.447-4.605 8.417-9.75 12.975-14.363 2.29-2.283 4.46-4.624 6.716-6.947 2.245-2.328 4.258-4.855 6.46-7.267 3.546-3.888 7.093-7.51 10.24-11.606 2.39-3.108 5.025-6.035 7.56-8.7.89-.957 2.012-1.776 2.913-2.764.222-.27.133-.844.377-1.158.223-.27.79-.433.99-.662 1.568-1.843 2.98-3.505 4.58-5.204 3.214-3.385 6.96-6.437 10.14-9.78 3.325-3.505 6.428-6.85 9.707-10.27 2.1-2.207 4.458-4.26 6.55-6.742 4.113-4.9 7.76-9.33 12.274-14.08 2.156-2.29 3.79-6.368 5.514-7.51.3-.194 1.324-.1 1.6-.405.246-.26.668-1.803.668-1.742.08-2.387-2.635-3.91-3.368-4.643z" fill="#B1C940" fill-rule="evenodd"/></svg>