	<svg width="271px" height="196px" viewBox="0 0 250 250">
		<g id="Page-1" stroke="none" stroke-width="1" fill="none" fill-rule="evenodd">
			<g fill="#B1C940">
				<path class="path" d="M257.7235,47.9215 C239.8675,53.5165 224.1905,61.665 207.1905,67.476 C217.3085,49.742 225.1245,29.9845 233.9525,11.6395 C233.9525,11.613 234.086,10.4885 234.5975,11.006 C237.121,13.6035 239.5005,16.8525 241.8355,20.0255 C247.439,27.622 253.988,34.1875 260.792,41.135 C261.0925,41.4365 262.582,43.0905 263.6165,44.376 C262.638,43.131 264.4505,45.2475 264.3165,45.563 C264.0945,46.1785 258.824,47.567 257.7235,47.9215 L257.7235,47.9215 Z M261.17,53.0995 C257.1565,58.295 252.2535,62.6365 248.44,67.8175 C247.6615,68.834 246.8055,69.9665 245.927,70.878 C245.0265,71.7815 243.9145,72.5415 243.003,73.4675 C242.0245,74.479 241.324,75.7505 240.379,76.743 C231.9065,85.3905 222.445,93.8265 214.473,103.1075 C211.371,106.689 208.1355,110.1985 205.0115,113.87 C197.4285,122.773 189.557,131.933 180.94,140.346 C177.582,143.6535 174.38,147.3215 171.5005,151.128 C168.621,154.9385 165.141,158.256 162.2165,161.878 C156.2015,169.3565 149.353,175.994 143.282,183.271 C143.4935,181.1765 145.1165,179.748 146.017,177.9815 C147.8405,174.4445 150.0975,170.3865 152.132,166.7325 C153.0555,165.073 154.178,163.465 155.0785,161.779 C156.0015,160.103 157.158,158.6105 158.0805,157.0025 C159.1035,155.196 159.6705,153.051 160.56,151.1775 C160.8825,150.486 161.6055,149.874 161.9275,149.182 C162.1725,148.625 162.0055,147.9955 162.228,147.484 C162.9505,145.969 164.0845,144.504 164.885,142.9265 C167.1755,138.4445 169.5995,133.308 172.268,128.962 C175.97,122.972 178.839,116.5275 182.1075,110.293 C183.675,107.2545 185.5765,104.303 187.4,101.1785 C189.134,98.2445 190.5685,95.04 192.325,91.9335 C193.926,89.1165 195.583,86.163 197.451,82.833 C198.8185,80.3785 200.875,74.8295 202.7875,73.9035 C203.4215,73.606 204.289,73.8635 204.9335,73.606 C205.8675,73.256 206.39,72.321 207.235,71.84 C208.269,71.256 209.659,70.7435 210.8595,70.2445 C213.1165,69.3145 215.796,68.7795 218.1535,67.7635 C224.3795,65.1175 230.9395,62.0835 237.2325,59.3055 C240.679,57.8045 244.3925,56.8745 247.839,55.486 C250.3965,54.4605 252.7535,53.4095 255.2665,52.641 C257.768,51.859 260.192,51.118 262.582,50.1645 C264.128,49.553 261.2705,52.983 261.17,53.0995 L261.17,53.0995 Z M140.9695,178.2995 C139.6795,180.8305 139.024,184.237 136.7,185.8145 C136.633,167.8915 135.8215,150.516 136.411,133.362 C136.5775,128.823 136.7335,124.199 136.711,119.646 C136.6555,107.349 136.6555,95.561 135.7885,83.867 C143.5265,82.087 152.1545,80.8195 161.0825,79.467 C164.6405,78.9275 168.254,78.8555 171.801,77.998 C179.4945,76.101 190.4465,74.856 198.14,73.256 C198.518,73.916 197.7735,74.7125 197.495,75.1795 C194.7045,79.7185 192.103,84.9775 189.29,89.7865 C187.689,92.519 186.399,95.4805 184.809,98.271 C183.2305,100.999 181.4625,103.6415 179.906,106.4055 C176.8485,111.916 174.1465,117.902 171.167,123.66 C168.999,127.853 166.6195,131.9195 164.3405,136.261 C163.1725,138.4805 161.883,140.549 160.716,142.953 C158.7925,146.822 156.6245,151.182 154.367,155.1275 C153.4445,156.737 152.8215,158.4855 151.932,160.0225 C151.4875,160.8035 150.6645,161.326 150.209,162.081 C149.119,163.8875 148.4075,166.071 147.196,167.9595 C146.162,169.559 145.2945,171.006 144.2385,172.9255 C143.6715,173.976 143.2935,175.217 142.6815,176.237 C142.248,176.9835 141.3585,177.5185 140.9695,178.2995 L140.9695,178.2995 Z M136.9115,53.643 C136.9,51.6875 136.3105,47.8005 136.7335,47.0725 C137.078,46.5555 137.3005,47.3515 137.99,46.911 C138.2565,46.7705 138.9345,45.481 139.3685,44.897 C143.16,39.72 147.7515,34.0165 151.8875,28.6005 C155.546,23.8015 159.437,18.5705 163.117,13.563 C164.029,12.3275 164.6515,10.885 165.508,9.762 C166.019,9.078 167.042,8.9835 167.0755,7.909 C167.231,7.8565 167.2645,7.955 167.2755,8.0715 C167.1755,12.8625 168.1095,17.977 167.8315,22.588 C167.7315,24.1295 167.5535,26.363 167.0755,27.7915 C166.3415,29.968 164.2735,31.522 162.9725,33.626 C161.7945,35.4815 160.849,37.2935 159.504,39.024 C155.8125,43.8855 152.1435,49.3695 148.941,54.897 C145.6945,60.4515 142.448,65.876 139.1905,71.5395 C138.179,73.3365 137.3895,75.413 135.933,76.91 C135.8995,69.013 136.989,61.9085 136.9115,53.643 L136.9115,53.643 Z M170.689,30.2095 C179.5725,43.441 188.523,56.5645 197.451,69.719 C191.5915,70.7435 184.509,71.7455 178.016,72.753 C172.8125,73.5885 167.676,75.206 162.5835,75.777 C155.0785,76.6805 146.562,78.0565 140.013,78.7165 C140.191,76.896 141.4695,75.453 142.259,73.8635 C144.5605,69.067 147.7075,64.3265 150.509,59.593 C153.6665,54.245 157.347,48.839 161.0825,43.7385 C161.6055,42.996 161.883,42.0565 162.4055,41.37 C163.384,40.061 164.7405,39.0005 165.697,37.616 C166.653,36.268 167.231,34.646 168.2095,33.276 C168.9655,32.21 170.333,31.604 170.689,30.2095 L170.689,30.2095 Z M171.4115,4.9615 C188.6565,4.418 208.002,7.0335 226.303,7.7785 C217.664,11.424 205.823,13.9675 194.7715,17.029 C192.281,17.721 189.868,18.174 187.355,18.7895 C184.2645,19.5445 180.2285,20.9205 175.592,22.067 C174.4915,22.3365 172.39,23.0105 172.034,22.727 C170.967,21.8195 171.5005,17.0735 171.456,15.8725 C171.267,11.1545 170.7445,7.6215 171.4115,4.9615 L171.4115,4.9615 Z M229.4385,10.629 C229.494,10.615 229.8165,10.237 230.1165,10.3415 C230.928,10.615 229.016,13.1725 229.205,12.8525 C227.704,15.8825 226.959,17.8155 225.458,21.5625 C222.834,28.1875 220.2765,32.5695 217.597,38.5155 C215.9295,42.215 214.2285,45.9755 212.416,49.7825 C210.515,53.778 208.3135,57.2705 206.1345,61.2205 C205.2005,62.9465 204.8555,63.679 203.644,65.5665 C203.0545,66.52 202.8545,67.6425 201.72,67.476 C201.109,67.3995 198.485,63.8945 198.029,63.261 C190.402,52.641 184.131,43.9035 177.0375,32.61 C176.2815,31.423 173.7355,28.232 174.1025,27.172 C174.269,26.745 178.761,24.7995 179.417,24.6145 C180.0505,24.4395 180.8955,24.4755 181.5515,24.327 C188.712,22.763 194.949,20.4175 204.055,18.309 C206.5345,17.7475 209.225,16.9065 211.7825,16.156 C216.363,14.79 220.477,13.649 225.08,12.1255 C226.559,11.6395 228.082,10.7765 229.4385,10.629 L229.4385,10.629 Z M133.5425,54.259 C133.487,61.468 132.8865,69.516 132.464,76.8555 C127.5275,71.445 123.536,64.057 119.133,56.798 C116.509,52.5065 113.718,48.1245 111.4615,43.4545 C109.76,40.0025 107.681,37.1675 105.88,33.473 C105.402,32.4935 104.5345,31.3065 104.19,30.431 C104.0675,30.103 103.823,29.176 103.7895,28.8355 C103.723,28.1475 104.1345,27.4595 104.0455,26.7995 C103.9785,26.0975 103.4115,25.393 103.2225,24.723 C102.6335,22.6145 103.167,20.3005 103.178,17.802 C103.189,15.321 102.9335,11.963 102.6335,9.869 C102.578,9.452 102.4,9.2225 102.2775,8.6195 C102.4775,8.575 102.611,8.6335 102.6665,8.764 C110.7385,20.1785 119.878,31.6525 128.9615,42.151 C130.218,43.616 130.863,44.43 132.0525,46.102 C132.575,46.825 133.398,47.5045 133.587,48.062 C134.276,49.945 133.5755,52.3215 133.5425,54.259 L133.5425,54.259 Z M133.12,183.567 C125.326,170.165 119.044,156.359 111.8725,143.124 C109.7045,139.12 106.736,135.142 104.5345,130.823 C102.422,126.656 99.809,122.3565 97.352,118.5035 C96.5625,117.2235 95.3505,116.284 94.517,115.071 C92.3045,111.844 90.414,108.2165 88.3685,104.788 C86.3225,101.3635 84.188,97.951 82.2085,94.523 C78.162,87.499 74.2255,80.2715 69.6895,73.8315 C69.712,73.606 69.945,73.324 70.034,73.602 C73.4475,73.9525 76.8495,74.5195 80.263,75.103 C83.632,75.705 87.023,76.6265 90.381,77.1655 C94.061,77.773 97.83,77.66 101.477,78.1995 C111.1165,79.638 121.779,82.006 132.4195,83.2335 C134.1985,118.0505 132.064,149.303 133.12,183.567 L133.12,183.567 Z M126.182,182.165 C105.5685,162.566 86.812,139.861 67.755,117.835 C62.852,112.198 57.4705,106.9225 52.5115,101.3535 C42.6385,90.1265 33.1435,78.4875 22.592,67.908 C17.1665,62.4785 12.441,56.2995 7.449,50.672 C7.5825,50.637 7.6155,50.7125 7.649,50.8345 C12.1075,52.209 16.299,54.3175 20.602,56.1645 C28.0845,59.365 35.7895,62.142 43.517,65.023 C46.541,66.1595 50.1325,67.651 53.3345,68.789 C55.458,69.53 57.793,69.8985 59.794,70.8115 C60.1945,70.96 61.095,71.3505 61.551,71.6605 C61.9845,71.944 62.218,72.771 62.674,72.986 C63.2745,73.242 64.4195,72.8115 65.053,73.1755 C65.7535,73.606 66.8655,76.272 67.8995,77.9035 C69,79.6745 70.123,81.121 70.8795,82.4145 C72.9585,85.9615 74.415,89.571 76.0935,92.4465 C83.654,105.273 91.448,117.264 99.0975,129.7445 C100.054,131.3135 100.7765,133.0745 101.777,134.6695 C102.7555,136.221 103.745,137.8065 104.6235,139.376 C106.4025,142.557 108.5595,145.5145 110.2385,148.629 C111.1165,150.2065 111.817,152.081 112.7955,153.739 C114.1965,156.1435 114.908,157.6665 115.8975,160.417 C116.609,162.3505 118.0545,164.1975 119.0665,166.1875 C121.924,171.901 125.1815,177.869 128.0055,183.549 C127.5605,183.824 126.849,182.7985 126.182,182.165 L126.182,182.165 Z M9.1165,41.527 C14.6535,33.8955 21.2135,27.2705 27.195,20.6105 C29.0855,18.516 31.0755,16.7495 33.121,14.687 C33.9105,13.8905 34.578,12.9345 35.3115,12.201 C37.624,16.7495 40.304,23.0105 42.8165,28.1475 C46.263,35.1575 49.9875,43.32 53.5345,50.3395 C54.6685,52.6275 55.1465,55.229 56.314,57.446 C56.67,58.092 57.3595,58.456 57.615,58.8885 C58.7265,60.7075 60.428,65.7635 60.3835,65.8095 C59.783,66.6545 58.0485,65.1355 57.3595,64.9425 C54.2905,64.132 51.144,63.472 48.0755,62.407 C45.218,61.423 42.494,60.025 39.559,58.83 C36.668,57.661 33.5215,57.0275 30.586,55.8625 C24.6825,53.5485 20.1235,51.5265 13.9645,49.0415 C12.7635,48.5555 11.685,47.9755 9.906,47.41 C9.2835,47.229 5.859,46.4925 5.703,46.0075 C5.5585,45.5085 8.016,43.01 9.1165,41.527 L9.1165,41.527 Z M39.2695,10.372 C41.382,10.561 43.8285,11.9855 45.796,12.754 C53.3675,15.7515 61.284,18.49 69.334,20.8395 C76.149,22.8035 83.4205,24.7895 90.392,26.848 C90.9365,27.0105 94.0165,27.8095 94.261,28.5015 C94.639,29.487 92.7265,31.697 91.9375,32.8395 C89.091,36.889 85.344,40.8655 82.8205,44.6595 C80.096,48.7845 77.2835,52.619 74.504,56.947 C72.2135,60.402 70.2675,64.057 67.1215,67.0715 C67.21,65.7235 65.776,65.6065 65.1755,64.7935 C64.786,64.285 64.753,63.4095 64.3305,62.7075 C63.641,61.5485 63.1075,61.019 62.4515,59.508 C60.795,55.782 58.204,51.9975 56.7255,48.4385 C56.414,47.6795 56.414,46.893 56.047,46.1565 C55.7915,45.6975 55.269,45.4685 54.991,45.046 C53.9235,43.441 53.4345,41.1895 52.534,39.1935 C51.489,36.8975 50.1435,34.646 49.0205,32.2055 C45.9855,25.5945 41.1265,17.8155 38.8025,10.9875 C38.8025,10.9875 38.914,10.3455 39.2695,10.372 L39.2695,10.372 Z M48.798,9.424 C48.798,9.4285 48.8205,9.4285 48.8315,9.438 C63.908,7.406 83.354,6.022 98.442,4.5975 C98.642,9.3975 98.764,14.0755 98.9865,19.1095 C99.053,20.6645 98.9085,23.8555 98.753,24.0755 C98.6865,24.1435 97.163,23.5765 96.318,23.496 C95.5175,23.415 95.5285,23.7795 94.873,23.693 C92.9935,23.4555 90.7925,22.3185 88.5795,21.6345 C86.456,20.997 84.2105,20.6245 82.153,19.963 C71.546,16.683 58.46,13.5505 48.8315,9.438 C48.698,9.452 48.5535,9.478 48.42,9.4825 C48.5645,9.478 48.698,9.452 48.798,9.424 L48.798,9.424 Z M103.8675,38.682 C104.779,40.372 105.902,41.9495 106.758,43.7385 C112.562,55.675 120.367,66.8295 127.105,77.7685 C124.8035,78.038 122.3795,77.485 120.089,77.071 C111.7505,75.652 103.245,73.9385 94.5835,73.1295 C86.812,72.407 78.573,70.3665 70.9015,69.4635 C71.513,68.3305 72.447,67.252 73.381,66.2085 C75.4935,63.8625 77.3055,60.0515 79.407,56.9955 C80.074,56.003 80.708,55.1345 81.3975,54.1645 C82.865,52.038 84.2545,49.8365 85.7665,47.545 C86.856,45.899 88.313,44.362 89.647,42.646 C90.648,41.352 91.237,39.8955 92.2045,38.8125 C92.56,38.461 93.049,38.29 93.3715,37.9495 C95.195,35.886 96.5625,33.194 99.6425,31.7745 C100.721,31.28 103.3335,37.666 103.8675,38.682 L103.8675,38.682 Z M267.508,42.187 C262.96,37.7605 258.7685,33.073 254.377,28.88 C250.241,24.965 246.7945,19.7335 243.0695,15.6935 C240.6015,12.957 238.8445,10.6915 236.521,7.82 C235.9205,7.1045 234.586,5.078 233.7635,4.917 C233.3855,4.867 232.6515,5.3075 232.1625,5.3215 C230.4835,5.362 228.0375,4.853 226.6255,4.8225 C222.156,4.678 217.853,4.314 213.3725,3.905 C199.43,2.6015 184.309,1.815 170.322,1.0865 C169.4325,1.0335 168.265,0.521 167.5755,0.9115 C166.7085,1.3745 167.1645,2.7505 166.6975,3.7705 C166.0525,5.092 163.6065,6.7415 162.417,8.372 C154.823,18.6955 147.218,28.053 139.5355,38.1425 C138.779,39.117 135.955,42.893 135.266,42.929 C134.7435,42.9195 134.2095,41.666 133.2755,40.4525 C132.642,39.6255 131.708,38.9015 131.1855,38.3805 C129.3065,36.6055 128.15,35.0145 126.86,33.491 C118.8995,24.1655 111.2945,15.0195 104.49,4.853 C104.2565,4.4985 104.0675,3.69 103.745,3.316 C103.3115,2.831 102.6335,2.9255 102.333,2.4265 C102.4775,2.656 102.2885,1.686 102.211,1.523 C101.399,-0.5795 99.6425,0.4805 96.8295,0.8045 C86.0445,2.157 75.527,1.9275 63.141,3.6355 C59.2825,4.175 55.747,4.4985 51.8225,4.8225 C48.609,5.0825 45.296,5.6175 42.6165,5.541 C42.1825,5.537 41.716,5.173 41.293,5.1865 C40.5815,5.2045 39.781,5.6175 39.1585,5.6715 C38.1245,5.716 37.6465,5.352 36.8015,5.6315 C36.0345,5.8645 35.334,5.905 35.1115,6.764 C35,7.263 35.0225,6.782 34.811,7.1685 C32.9545,10.611 29.063,13.3655 26.239,16.3815 C23.715,19.033 21.058,21.617 18.5895,24.3405 C14.798,28.5255 11.218,32.6905 7.716,36.7765 C6.504,38.2195 5.0475,39.3965 3.891,40.771 C3.1905,41.612 2.8235,42.758 2.101,43.5755 C1.2335,44.533 0.1775,44.9695 0.044,45.873 C-0.412,48.879 2.8015,50.2675 4.1245,51.6875 C6.7815,54.5685 9.061,57.8225 11.5735,60.848 C19.1235,69.8985 27.818,78.2535 35.256,87.1305 C40.2705,93.1245 45.8075,98.774 50.8215,104.8825 C55.7805,110.8905 61.3285,116.562 66.721,122.3565 C77.517,133.9375 87.1675,146.526 97.8745,158.0045 C100.543,160.84 103.0335,163.8735 105.6465,166.7545 C112.195,173.972 119.6555,180.75 126.2045,187.635 C127.5385,189.0375 129.1505,190.363 130.418,191.792 C130.685,192.0755 130.696,192.6955 130.9515,192.983 C131.274,193.347 131.875,193.401 132.1525,193.7335 C132.7865,194.448 132.6975,195.19 133.298,195.5805 C134.0985,196.0655 135.955,196.1195 136.989,195.796 C137.5225,195.6485 139.8685,194.1295 139.8685,194.1295 C140.247,193.693 140.013,192.808 140.3355,192.2405 C141.4255,190.3355 143.9045,188.673 145.406,186.8125 C145.784,186.3315 145.9395,185.424 146.4175,184.8485 C146.662,184.561 147.129,184.4845 147.4295,184.1825 C147.6515,183.905 147.774,183.428 148.0185,183.1585 C153.8,176.251 159.815,170.3765 165.352,163.455 C167.3645,160.948 169.4325,158.3005 171.612,156.031 C176.059,151.4255 180.0285,146.2785 184.587,141.6675 C186.8775,139.384 189.0455,137.0435 191.3025,134.7195 C193.548,132.392 195.561,129.865 197.762,127.4525 C201.309,123.5655 204.8555,119.942 208.002,115.8475 C210.3925,112.739 213.028,109.8115 215.5625,107.1475 C216.452,106.19 217.575,105.3715 218.4755,104.3835 C218.698,104.114 218.609,103.5385 218.8535,103.2245 C219.076,102.955 219.643,102.792 219.843,102.563 C221.411,100.72 222.823,99.0575 224.424,97.359 C227.6375,93.975 231.384,90.923 234.564,87.5795 C237.888,84.0745 240.9905,80.7305 244.27,77.31 C246.3715,75.103 248.7285,73.049 250.819,70.568 C254.933,65.669 258.5795,61.2385 263.0935,56.4885 C265.2505,54.1965 266.885,50.12 268.6085,48.9775 C268.9085,48.7845 269.9315,48.879 270.2095,48.573 C270.4545,48.3135 270.8765,46.7705 270.8765,46.8305 C270.9545,44.4425 268.2415,42.9195 267.508,42.187 L267.508,42.187 Z"></path>
			</g>
		</g>
	</svg>